<?xml version="1.0" encoding="utf-8" standalone="no"?>
<!DOCTYPE svg PUBLIC "-//W3C//DTD SVG 1.1//EN"
  "http://www.w3.org/Graphics/SVG/1.1/DTD/svg11.dtd">
<!-- Created with matplotlib (https://matplotlib.org/) -->
<svg height="280.512pt" version="1.1" viewBox="0 0 280.512 280.512" width="280.512pt" xmlns="http://www.w3.org/2000/svg" xmlns:xlink="http://www.w3.org/1999/xlink">
 <defs>
  <style type="text/css">
*{stroke-linecap:butt;stroke-linejoin:round;}
  </style>
 </defs>
 <g id="figure_1">
  <g id="patch_1">
   <path d="M 0 280.512 
L 280.512 280.512 
L 280.512 0 
L 0 0 
z
" style="fill:#ffffff;"/>
  </g>
  <g id="axes_1">
   <g id="line2d_1">
    <path clip-path="url(#pa41f58af9a)" d="M 19.296 261.216 
L 261.216 261.216 
L 261.216 19.296 
L 19.296 19.296 
L 19.296 261.216 
" style="fill:none;stroke:#808080;stroke-linecap:square;stroke-width:1.5;"/>
   </g>
   <g id="line2d_2">
    <path clip-path="url(#pa41f58af9a)" d="M 64.656 215.856 
L 215.856 215.856 
L 215.856 64.656 
L 64.656 64.656 
L 64.656 215.856 
" style="fill:none;stroke:#808080;stroke-linecap:square;stroke-width:1.5;"/>
   </g>
   <g id="line2d_3">
    <path clip-path="url(#pa41f58af9a)" d="M 157.71107 183.999617 
L 187.948878 183.635516 
L 172.514653 157.630857 
L 157.71107 183.999617 
" style="fill:none;stroke:#ff7f0e;stroke-linecap:square;stroke-opacity:0.2;stroke-width:1.5;"/>
   </g>
   <g id="line2d_4">
    <path clip-path="url(#pa41f58af9a)" d="M 160.495077 125.519685 
L 166.763819 155.102797 
L 189.249174 134.882352 
L 160.495077 125.519685 
" style="fill:none;stroke:#ff7f0e;stroke-linecap:square;stroke-opacity:0.2;stroke-width:1.5;"/>
   </g>
   <g id="line2d_5">
    <path clip-path="url(#pa41f58af9a)" d="M 183.740371 160.796936 
L 154.785783 169.519862 
L 176.817352 190.233808 
L 183.740371 160.796936 
" style="fill:none;stroke:#ff7f0e;stroke-linecap:square;stroke-opacity:0.2;stroke-width:1.5;"/>
   </g>
   <g id="line2d_6">
    <path clip-path="url(#pa41f58af9a)" d="M 170.828852 132.586256 
L 153.136229 108.062213 
L 140.744096 135.646495 
L 170.828852 132.586256 
" style="fill:none;stroke:#ff7f0e;stroke-linecap:square;stroke-opacity:0.2;stroke-width:1.5;"/>
   </g>
   <g id="line2d_7">
    <path clip-path="url(#pa41f58af9a)" d="M 122.504667 141.240466 
L 92.724818 146.495768 
L 112.165967 169.658223 
L 122.504667 141.240466 
" style="fill:none;stroke:#ff7f0e;stroke-linecap:square;stroke-opacity:0.2;stroke-width:1.5;"/>
   </g>
   <g id="line2d_8">
    <path clip-path="url(#pa41f58af9a)" d="M 111.749009 102.451384 
L 137.513522 118.283233 
L 138.342049 88.054585 
L 111.749009 102.451384 
" style="fill:none;stroke:#ff7f0e;stroke-linecap:square;stroke-opacity:0.2;stroke-width:1.5;"/>
   </g>
   <g id="line2d_9">
    <path clip-path="url(#pa41f58af9a)" d="M 188.37307 119.754312 
L 172.206196 94.198691 
L 158.157815 120.977425 
L 188.37307 119.754312 
" style="fill:none;stroke:#ff7f0e;stroke-linecap:square;stroke-opacity:0.2;stroke-width:1.5;"/>
   </g>
   <g id="line2d_10">
    <path clip-path="url(#pa41f58af9a)" d="M 119.470853 130.876217 
L 138.754662 154.169827 
L 149.285616 125.822753 
L 119.470853 130.876217 
" style="fill:none;stroke:#ff7f0e;stroke-linecap:square;stroke-opacity:0.2;stroke-width:1.5;"/>
   </g>
   <g id="line2d_11">
    <path clip-path="url(#pa41f58af9a)" d="M 139.007957 155.007766 
L 134.034115 125.179617 
L 110.689101 144.401166 
L 139.007957 155.007766 
" style="fill:none;stroke:#ff7f0e;stroke-linecap:square;stroke-opacity:0.2;stroke-width:1.5;"/>
   </g>
   <g id="line2d_12">
    <path clip-path="url(#pa41f58af9a)" d="M 125.270754 190.955055 
L 119.766749 161.220168 
L 96.767584 180.85422 
L 125.270754 190.955055 
" style="fill:none;stroke:#ff7f0e;stroke-linecap:square;stroke-opacity:0.2;stroke-width:1.5;"/>
   </g>
   <g id="line2d_13">
    <path clip-path="url(#pa41f58af9a)" d="M 137.338213 215.624403 
L 167.577455 215.838532 
L 152.643275 189.543516 
L 137.338213 215.624403 
" style="fill:none;stroke:#8c564b;stroke-linecap:square;stroke-width:1.5;"/>
   </g>
   <g id="line2d_14">
    <path clip-path="url(#pa41f58af9a)" d="M 177.346229 190.247852 
L 204.576812 203.39901 
L 202.350757 173.241054 
L 177.346229 190.247852 
" style="fill:none;stroke:#8c564b;stroke-linecap:square;stroke-width:1.5;"/>
   </g>
   <g id="line2d_15">
    <path clip-path="url(#pa41f58af9a)" d="M 192.688249 198.013191 
L 164.961439 185.943326 
L 168.372035 215.99038 
L 192.688249 198.013191 
" style="fill:none;stroke:#8c564b;stroke-linecap:square;stroke-width:1.5;"/>
   </g>
   <g id="line2d_16">
    <path clip-path="url(#pa41f58af9a)" d="M 177.044275 184.304522 
L 158.081161 160.749101 
L 147.163124 188.94935 
L 177.044275 184.304522 
" style="fill:none;stroke:#8c564b;stroke-linecap:square;stroke-width:1.5;"/>
   </g>
   <g id="line2d_17">
    <path clip-path="url(#pa41f58af9a)" d="M 94.8664 214.058114 
L 79.715807 187.887193 
L 64.626421 214.093452 
L 94.8664 214.058114 
" style="fill:none;stroke:#8c564b;stroke-linecap:square;stroke-width:1.5;"/>
   </g>
   <g id="line2d_18">
    <path clip-path="url(#pa41f58af9a)" d="M 115.407684 163.602262 
L 143.942273 173.613994 
L 138.345394 143.896449 
L 115.407684 163.602262 
" style="fill:none;stroke:#8c564b;stroke-linecap:square;stroke-width:1.5;"/>
   </g>
   <g id="line2d_19">
    <path clip-path="url(#pa41f58af9a)" d="M 204.529003 170.511065 
L 179.767248 153.152693 
L 177.115335 183.276189 
L 204.529003 170.511065 
" style="fill:none;stroke:#8c564b;stroke-linecap:square;stroke-width:1.5;"/>
   </g>
   <g id="line2d_20">
    <path clip-path="url(#pa41f58af9a)" d="M 123.347507 175.325262 
L 140.570709 200.181226 
L 153.485003 172.837513 
L 123.347507 175.325262 
" style="fill:none;stroke:#8c564b;stroke-linecap:square;stroke-width:1.5;"/>
   </g>
   <g id="line2d_21">
    <path clip-path="url(#pa41f58af9a)" d="M 127.978384 194.9079 
L 120.664963 165.565585 
L 98.910483 186.570351 
L 127.978384 194.9079 
" style="fill:none;stroke:#8c564b;stroke-linecap:square;stroke-width:1.5;"/>
   </g>
   <g id="line2d_22">
    <path clip-path="url(#pa41f58af9a)" d="M 124.882646 215.811763 
L 109.751514 189.629585 
L 94.642649 215.824618 
L 124.882646 215.811763 
" style="fill:none;stroke:#8c564b;stroke-linecap:square;stroke-width:1.5;"/>
   </g>
  </g>
 </g>
 <defs>
  <clipPath id="pa41f58af9a">
   <rect height="266.112" width="266.112" x="7.2" y="7.2"/>
  </clipPath>
 </defs>
</svg>
