<?xml version="1.0" encoding="utf-8" standalone="no"?>
<!DOCTYPE svg PUBLIC "-//W3C//DTD SVG 1.1//EN"
  "http://www.w3.org/Graphics/SVG/1.1/DTD/svg11.dtd">
<!-- Created with matplotlib (https://matplotlib.org/) -->
<svg height="280.512pt" version="1.1" viewBox="0 0 280.512 280.512" width="280.512pt" xmlns="http://www.w3.org/2000/svg" xmlns:xlink="http://www.w3.org/1999/xlink">
 <defs>
  <style type="text/css">
*{stroke-linecap:butt;stroke-linejoin:round;}
  </style>
 </defs>
 <g id="figure_1">
  <g id="patch_1">
   <path d="M 0 280.512 
L 280.512 280.512 
L 280.512 0 
L 0 0 
z
" style="fill:#ffffff;"/>
  </g>
  <g id="axes_1">
   <g id="line2d_1">
    <path clip-path="url(#pa7d7411cff)" d="M 19.296 261.216 
L 261.216 261.216 
L 261.216 19.296 
L 19.296 19.296 
L 19.296 261.216 
" style="fill:none;stroke:#808080;stroke-linecap:square;stroke-width:1.5;"/>
   </g>
   <g id="line2d_2">
    <path clip-path="url(#pa7d7411cff)" d="M 64.656 215.856 
L 215.856 215.856 
L 215.856 64.656 
L 64.656 64.656 
L 64.656 215.856 
" style="fill:none;stroke:#808080;stroke-linecap:square;stroke-width:1.5;"/>
   </g>
   <g id="line2d_3">
    <path clip-path="url(#pa7d7411cff)" d="M 178.793838 84.11409 
L 147.243351 104.932514 
L 181.047879 121.846825 
L 178.793838 84.11409 
" style="fill:none;stroke:#ff7f0e;stroke-linecap:square;stroke-opacity:0.2;stroke-width:1.5;"/>
   </g>
   <g id="line2d_4">
    <path clip-path="url(#pa7d7411cff)" d="M 197.215925 120.25822 
L 162.951678 104.29572 
L 166.259871 141.950678 
L 197.215925 120.25822 
" style="fill:none;stroke:#ff7f0e;stroke-linecap:square;stroke-opacity:0.2;stroke-width:1.5;"/>
   </g>
   <g id="line2d_5">
    <path clip-path="url(#pa7d7411cff)" d="M 168.635145 123.556685 
L 142.150555 150.52716 
L 178.749966 159.97825 
L 168.635145 123.556685 
" style="fill:none;stroke:#ff7f0e;stroke-linecap:square;stroke-opacity:0.2;stroke-width:1.5;"/>
   </g>
   <g id="line2d_6">
    <path clip-path="url(#pa7d7411cff)" d="M 105.189874 171.140519 
L 140.419377 184.84169 
L 134.670187 147.481459 
L 105.189874 171.140519 
" style="fill:none;stroke:#ff7f0e;stroke-linecap:square;stroke-opacity:0.2;stroke-width:1.5;"/>
   </g>
   <g id="line2d_7">
    <path clip-path="url(#pa7d7411cff)" d="M 102.310226 121.16207 
L 93.500471 157.921127 
L 129.739625 147.17107 
L 102.310226 121.16207 
" style="fill:none;stroke:#ff7f0e;stroke-linecap:square;stroke-opacity:0.2;stroke-width:1.5;"/>
   </g>
   <g id="line2d_8">
    <path clip-path="url(#pa7d7411cff)" d="M 181.375111 161.877094 
L 151.714147 138.444911 
L 146.251763 175.848151 
L 181.375111 161.877094 
" style="fill:none;stroke:#ff7f0e;stroke-linecap:square;stroke-opacity:0.2;stroke-width:1.5;"/>
   </g>
   <g id="line2d_9">
    <path clip-path="url(#pa7d7411cff)" d="M 159.436713 109.720065 
L 147.90224 145.717231 
L 184.843937 137.707794 
L 159.436713 109.720065 
" style="fill:none;stroke:#ff7f0e;stroke-linecap:square;stroke-opacity:0.2;stroke-width:1.5;"/>
   </g>
   <g id="line2d_10">
    <path clip-path="url(#pa7d7411cff)" d="M 153.729074 149.060807 
L 133.908085 181.24727 
L 171.692874 182.319518 
L 153.729074 149.060807 
" style="fill:none;stroke:#8c564b;stroke-linecap:square;stroke-width:1.5;"/>
   </g>
   <g id="line2d_11">
    <path clip-path="url(#pa7d7411cff)" d="M 213.648634 184.993018 
L 176.077811 180.836904 
L 191.263922 215.452248 
L 213.648634 184.993018 
" style="fill:none;stroke:#8c564b;stroke-linecap:square;stroke-width:1.5;"/>
   </g>
   <g id="line2d_12">
    <path clip-path="url(#pa7d7411cff)" d="M 167.558733 183.449642 
L 129.77327 182.401414 
L 147.75821 215.648699 
L 167.558733 183.449642 
" style="fill:none;stroke:#8c564b;stroke-linecap:square;stroke-width:1.5;"/>
   </g>
   <g id="line2d_13">
    <path clip-path="url(#pa7d7411cff)" d="M 109.73197 215.616573 
L 147.531941 215.56986 
L 128.591501 182.857481 
L 109.73197 215.616573 
" style="fill:none;stroke:#8c564b;stroke-linecap:square;stroke-width:1.5;"/>
   </g>
   <g id="line2d_14">
    <path clip-path="url(#pa7d7411cff)" d="M 82.638595 180.371671 
L 67.625153 215.062254 
L 105.174801 210.718985 
L 82.638595 180.371671 
" style="fill:none;stroke:#8c564b;stroke-linecap:square;stroke-width:1.5;"/>
   </g>
   <g id="line2d_15">
    <path clip-path="url(#pa7d7411cff)" d="M 190.923582 215.091738 
L 171.793623 182.489827 
L 153.124519 215.357813 
L 190.923582 215.091738 
" style="fill:none;stroke:#8c564b;stroke-linecap:square;stroke-width:1.5;"/>
   </g>
   <g id="line2d_16">
    <path clip-path="url(#pa7d7411cff)" d="M 89.396951 180.107636 
L 109.803687 211.925951 
L 127.155788 178.344042 
L 89.396951 180.107636 
" style="fill:none;stroke:#8c564b;stroke-linecap:square;stroke-width:1.5;"/>
   </g>
  </g>
 </g>
 <defs>
  <clipPath id="pa7d7411cff">
   <rect height="266.112" width="266.112" x="7.2" y="7.2"/>
  </clipPath>
 </defs>
</svg>
